# xmcd
#
# Track frame offsets:
#	150
#	15370
#	31795
#	46227
#	60080
#	77897
#	92407
#	107942
#	121630
#	134285
#
# Disc length: 1943 seconds
#
# Revision: 0
# Processed by: cddbd v1.4PL0 Copyright (c) Steve Scherf et al.
# Submitted via: dBpowerAMP V4.0
#
DISCID=6707950a
DTITLE=Ty Taylor - Take Me As I Am
DYEAR=1900
DGENRE=Country
TTITLE0=Ty Taylor - Money Matters
TTITLE1=Ty Taylor - A Foold Needs a Fool
TTITLE2=Ty Taylor - Take Me As I Am
TTITLE3=Ty Taylor - What a Lonely Way to Go
TTITLE4=Ty Taylor - Trick Rider
TTITLE5=Ty Taylor - After the Smoke Cleared
TTITLE6=Ty Taylor - Another Single Day
TTITLE7=Ty Taylor - Never Very Seldom
TTITLE8=Ty Taylor - That's What I'd be Like (Without You)
TTITLE9=Ty Taylor - Gimme Some Fiddles (And a Steel Guitar)
EXTD=
EXTT0=
EXTT1=
EXTT2=
EXTT3=
EXTT4=
EXTT5=
EXTT6=
EXTT7=
EXTT8=
EXTT9=
PLAYORDER=
